<?xml version="1.0" encoding="utf-8"?>
<!-- Generator: Adobe Illustrator 25.4.1, SVG Export Plug-In . SVG Version: 6.00 Build 0)  -->
<svg version="1.1" id="Capa_1" xmlns="http://www.w3.org/2000/svg" xmlns:xlink="http://www.w3.org/1999/xlink" x="0px" y="0px"
	 viewBox="0 0 1564.6 1080" style="enable-background:new 0 0 1564.6 1080;" xml:space="preserve">
<g>
	<path stroke="#FFFFFF" fill="#fff" d="M524.6,413.8c-1.6,0-2.9-0.5-3.8-1.5c-1-1-1.5-2.3-1.5-3.8V269.6c0-1.6,0.5-2.8,1.5-3.8c1-1,2.3-1.5,3.8-1.5h27.6
		c1.6,0,2.9,0.5,4,1.5c1.1,1,1.6,2.3,1.6,3.8v51.5h52.6v-51.5c0-1.6,0.5-2.8,1.5-3.8c1-1,2.3-1.5,3.8-1.5h27.6
		c1.6,0,2.8,0.5,3.8,1.5c1,1,1.5,2.3,1.5,3.8v138.9c0,1.4-0.5,2.7-1.5,3.7c-1,1.1-2.3,1.6-3.8,1.6h-27.6c-1.6,0-2.9-0.5-3.8-1.6
		c-1-1.1-1.5-2.3-1.5-3.7v-53.2h-52.6v53.2c0,1.4-0.5,2.7-1.6,3.7c-1.1,1.1-2.4,1.6-4,1.6H524.6z"/>
	<path stroke="#FFFFFF" fill="#fff" d="M683.8,413.8c-1.6,0-2.9-0.5-3.8-1.6c-1-1.1-1.5-2.3-1.5-3.7V269.6c0-1.6,0.5-2.8,1.5-3.8c1-1,2.3-1.5,3.8-1.5h28.6
		c1.6,0,2.9,0.5,4,1.5c1.1,1,1.6,2.3,1.6,3.8v138.9c0,1.4-0.5,2.7-1.6,3.7c-1.1,1.1-2.4,1.6-4,1.6H683.8z"/>
	<path stroke="#FFFFFF" fill="#fff" d="M809.4,415.9c-13.5,0-25.2-2.2-34.9-6.7c-9.8-4.5-17.3-11-22.6-19.7c-5.3-8.6-8.3-19.1-8.9-31.5
		c-0.1-6.1-0.2-12.6-0.2-19.5c0-6.9,0.1-13.5,0.2-19.8c0.6-12.1,3.6-22.4,9-30.8c5.4-8.4,13-14.8,22.9-19.2
		c9.8-4.4,21.4-6.6,34.6-6.6c10.7,0,20.2,1.3,28.4,4c8.3,2.6,15.2,6.2,20.8,10.6c5.6,4.4,9.9,9.3,12.9,14.5c3,5.3,4.6,10.5,4.7,15.6
		c0,1.3-0.5,2.3-1.4,3.2c-0.9,0.9-2,1.3-3.3,1.3h-31.2c-1.6,0-2.7-0.2-3.5-0.7c-0.8-0.5-1.5-1.2-2-2.2c-1-2.1-2.5-4.4-4.4-6.7
		c-1.9-2.3-4.6-4.4-7.9-6.1c-3.3-1.7-7.7-2.6-13.1-2.6c-8,0-14.3,2.1-19,6.4c-4.7,4.3-7.3,11.1-7.7,20.5c-0.4,12.3-0.4,24.6,0,37.2
		c0.4,10,3.1,17.2,7.9,21.6c4.8,4.4,11.3,6.6,19.4,6.6c5.3,0,10-0.9,14.2-2.8c4.2-1.8,7.5-4.7,9.9-8.7c2.4-3.9,3.6-8.9,3.6-15.1
		v-4.1h-20.1c-1.6,0-2.8-0.5-3.8-1.6c-1-1.1-1.5-2.4-1.5-4v-15.8c0-1.6,0.5-2.9,1.5-4c1-1.1,2.3-1.6,3.8-1.6h53.8
		c1.6,0,2.8,0.5,3.8,1.6c1,1.1,1.5,2.4,1.5,4v24.4c0,12.3-2.8,22.7-8.3,31.4c-5.6,8.7-13.4,15.3-23.6,20
		C834.8,413.6,822.9,415.9,809.4,415.9z"/>
	<path stroke="#FFFFFF" fill="#fff" d="M906.8,413.8c-1.6,0-2.9-0.5-3.8-1.5c-1-1-1.5-2.3-1.5-3.8V269.6c0-1.6,0.5-2.8,1.5-3.8c1-1,2.3-1.5,3.8-1.5h27.6
		c1.6,0,2.9,0.5,4,1.5c1.1,1,1.6,2.3,1.6,3.8v51.5h52.6v-51.5c0-1.6,0.5-2.8,1.5-3.8c1-1,2.3-1.5,3.8-1.5h27.6
		c1.6,0,2.8,0.5,3.8,1.5c1,1,1.5,2.3,1.5,3.8v138.9c0,1.4-0.5,2.7-1.5,3.7c-1,1.1-2.3,1.6-3.8,1.6h-27.6c-1.6,0-2.9-0.5-3.8-1.6
		c-1-1.1-1.5-2.3-1.5-3.7v-53.2h-52.6v53.2c0,1.4-0.5,2.7-1.6,3.7c-1.1,1.1-2.4,1.6-4,1.6H906.8z"/>
	<path stroke="#FFFFFF" fill="#fff" d="M562,625.5c-2.4,0-4.3-0.6-5.8-1.9c-1.4-1.3-2.4-2.8-3-4.5l-43.6-136.7c-0.3-0.7-0.4-1.4-0.4-1.9c0-1.1,0.5-2.2,1.4-3.1
		c0.9-0.9,2-1.4,3.3-1.4h26.5c2.3,0,4.1,0.6,5.3,1.9c1.3,1.3,2.1,2.5,2.3,3.6l30.3,98.7l30.1-98.7c0.4-1.1,1.2-2.4,2.5-3.6
		c1.2-1.3,3-1.9,5.2-1.9H643c1.1,0,2.2,0.5,3.1,1.4c0.9,0.9,1.4,2,1.4,3.1c0,0.6-0.1,1.2-0.4,1.9l-43.6,136.7
		c-0.4,1.7-1.4,3.2-2.8,4.5c-1.4,1.3-3.4,1.9-6,1.9H562z"/>
	<path stroke="#FFFFFF" fill="#fff" d="M647,625.5c-1.1,0-2.2-0.5-3.1-1.4c-0.9-0.9-1.4-2-1.4-3.1c0-0.7,0.1-1.4,0.2-1.9L693,481.9c0.4-1.6,1.3-3,2.7-4.2
		c1.4-1.2,3.2-1.8,5.7-1.8h31.6c2.4,0,4.3,0.6,5.7,1.8c1.4,1.2,2.2,2.6,2.7,4.2l50,137.1c0.3,0.6,0.4,1.2,0.4,1.9
		c0,1.1-0.5,2.2-1.4,3.1c-0.9,0.9-2,1.4-3.3,1.4h-26.3c-2.1,0-3.7-0.5-4.8-1.6c-1.1-1.1-1.7-2-2-2.9l-8.3-21.8h-57l-8.1,21.8
		c-0.3,0.9-0.9,1.8-1.9,2.9c-1,1.1-2.7,1.6-5.1,1.6H647z M697.2,568.5H737l-19.9-56.4L697.2,568.5z"/>
	<path stroke="#FFFFFF" fill="#fff" d="M813.9,625.5c-1.6,0-2.9-0.5-3.8-1.6c-1-1.1-1.5-2.3-1.5-3.7V481.3c0-1.6,0.5-2.8,1.5-3.8c1-1,2.3-1.5,3.8-1.5h28.2
		c1.6,0,2.8,0.5,3.8,1.5c1,1,1.5,2.3,1.5,3.8v111.9h64.7c1.6,0,2.8,0.5,3.8,1.6c1,1.1,1.5,2.4,1.5,4v21.4c0,1.4-0.5,2.7-1.5,3.7
		c-1,1.1-2.3,1.6-3.8,1.6H813.9z"/>
	<path stroke="#FFFFFF" fill="#fff" d="M941.4,625.5c-1.6,0-2.9-0.5-3.8-1.6c-1-1.1-1.5-2.3-1.5-3.7V481.3c0-1.6,0.5-2.8,1.5-3.8c1-1,2.3-1.5,3.8-1.5h28.2
		c1.6,0,2.8,0.5,3.8,1.5c1,1,1.5,2.3,1.5,3.8v111.9h64.7c1.6,0,2.8,0.5,3.8,1.6c1,1.1,1.5,2.4,1.5,4v21.4c0,1.4-0.5,2.7-1.5,3.7
		c-1,1.1-2.3,1.6-3.8,1.6H941.4z"/>
	<path stroke="#FFFFFF" fill="#fff" d="M1068.9,625.5c-1.6,0-2.9-0.5-3.8-1.6c-1-1.1-1.5-2.3-1.5-3.7V481.3c0-1.6,0.5-2.8,1.5-3.8c1-1,2.3-1.5,3.8-1.5h99.8
		c1.6,0,2.8,0.5,3.8,1.5c1,1,1.5,2.3,1.5,3.8v20.1c0,1.6-0.5,2.9-1.5,3.8c-1,1-2.3,1.5-3.8,1.5h-68.1v28.8h63.4
		c1.6,0,2.8,0.5,3.8,1.6c1,1.1,1.5,2.4,1.5,4v18.6c0,1.4-0.5,2.7-1.5,3.7c-1,1.1-2.3,1.6-3.8,1.6h-63.4v29.7h69.9
		c1.6,0,2.8,0.5,3.8,1.5c1,1,1.5,2.3,1.5,3.8v20.1c0,1.4-0.5,2.7-1.5,3.7c-1,1.1-2.3,1.6-3.8,1.6H1068.9z"/>
	<path stroke="#FFFFFF" fill="#fff" d="M1243.9,625.5c-1.4,0-2.7-0.5-3.7-1.6c-1.1-1.1-1.6-2.3-1.6-3.7v-45.9l-49.6-91.4c-0.1-0.4-0.3-0.8-0.4-1.2
		c-0.1-0.4-0.2-0.7-0.2-1.2c0-1.1,0.5-2.2,1.4-3.1c0.9-0.9,2-1.4,3.3-1.4h26.7c2.1,0,3.8,0.5,5,1.6c1.2,1.1,2,2,2.5,2.9l30.5,55.1
		l30.8-55.1c0.4-0.9,1.2-1.8,2.5-2.9c1.2-1.1,2.9-1.6,5-1.6h26.7c1.3,0,2.4,0.5,3.2,1.4c0.9,0.9,1.3,2,1.3,3.1c0,0.4,0,0.8-0.1,1.2
		c-0.1,0.4-0.2,0.7-0.3,1.2l-49.6,91.4v45.9c0,1.4-0.5,2.7-1.6,3.7c-1.1,1.1-2.4,1.6-4,1.6H1243.9z"/>
	<g>
		<path stroke="#FFFFFF" fill="#fff" d="M521.6,788.1c-1.2,0-2-0.3-2.7-1c-0.6-0.7-0.9-1.5-0.9-2.6V682c0-1.1,0.3-2.1,0.9-2.7c0.6-0.7,1.5-1,2.7-1h35.6
			c10.8,0,19.5,1.6,26.1,4.9c6.6,3.2,11.4,8,14.4,14.4c3,6.3,4.6,14.1,4.7,23.3c0.1,4.7,0.2,8.8,0.2,12.4c0,3.6-0.1,7.6-0.2,12.2
			c-0.2,9.6-1.8,17.6-4.8,23.9c-3,6.3-7.7,11-14.1,14.1c-6.4,3.1-14.9,4.6-25.5,4.6H521.6z M533.4,774.7h23.9c7.2,0,13-1,17.3-3
			c4.3-2,7.4-5.2,9.3-9.6c1.9-4.4,3-10.2,3.1-17.4c0.2-3.1,0.3-5.9,0.3-8.2s0-4.7,0-7.1c0-2.4-0.1-5-0.3-8.1
			c-0.2-10.1-2.6-17.7-7.2-22.5c-4.6-4.9-12.3-7.3-23.2-7.3h-23.1V774.7z"/>
		<path stroke="#FFFFFF" fill="#fff" d="M656.7,789.6c-10.9,0-19.5-3.3-25.9-10c-6.4-6.6-9.9-15.7-10.5-27.2c-0.1-1.4-0.2-3.1-0.2-5.3c0-2.1,0.1-3.9,0.2-5.3
			c0.4-7.4,2.1-13.9,5.2-19.5c3-5.6,7.2-9.9,12.5-12.9c5.3-3,11.5-4.6,18.6-4.6c7.9,0,14.6,1.7,20,5c5.4,3.3,9.5,8.1,12.3,14.3
			c2.8,6.2,4.2,13.4,4.2,21.7v2.7c0,1.2-0.3,2-1,2.7c-0.7,0.6-1.5,0.9-2.6,0.9h-54.3c0,0.1,0,0.3,0,0.6c0,0.3,0,0.6,0,0.8
			c0.2,4.3,1.1,8.3,2.8,12c1.7,3.7,4.1,6.7,7.3,9c3.2,2.3,6.9,3.5,11.2,3.5c3.8,0,6.9-0.6,9.4-1.7c2.5-1.2,4.6-2.4,6.1-3.8
			c1.6-1.4,2.6-2.5,3.1-3.4c0.9-1.3,1.7-2,2.2-2.3c0.5-0.3,1.4-0.4,2.5-0.4h7.7c0.9,0,1.8,0.3,2.4,0.9c0.7,0.6,1,1.4,0.9,2.4
			c-0.1,1.6-0.9,3.5-2.5,5.7c-1.6,2.3-3.8,4.5-6.7,6.7c-2.9,2.2-6.4,4-10.7,5.4C666.9,788.9,662.1,789.6,656.7,789.6z M635.2,741.3
			h43v-0.5c0-4.7-0.9-8.9-2.6-12.6c-1.7-3.7-4.2-6.6-7.5-8.7c-3.2-2.1-7.1-3.2-11.6-3.2c-4.5,0-8.3,1.1-11.5,3.2
			c-3.2,2.1-5.6,5-7.3,8.7c-1.7,3.7-2.5,7.8-2.5,12.6V741.3z"/>
		<path stroke="#FFFFFF" fill="#fff" d="M737.6,788.1c-1.6,0-2.8-0.4-3.7-1.1c-0.9-0.7-1.6-1.7-2.1-2.8l-29-72.8c-0.2-0.5-0.3-1-0.3-1.6c0-0.9,0.3-1.7,0.9-2.4
			c0.6-0.6,1.4-0.9,2.4-0.9h7.5c1.1,0,2,0.3,2.7,0.9c0.6,0.6,1,1.2,1.3,1.7L741,771l23.9-61.8c0.2-0.5,0.6-1.1,1.2-1.7
			c0.6-0.6,1.4-0.9,2.6-0.9h7.7c0.8,0,1.6,0.3,2.3,0.9c0.7,0.6,1,1.4,1,2.4c0,0.5-0.1,1-0.3,1.6l-29.2,72.8c-0.4,1.2-1.1,2.1-2,2.8
			c-0.9,0.7-2.2,1.1-3.8,1.1H737.6z"/>
		<path stroke="#FFFFFF" fill="#fff" d="M825.8,789.6c-10.9,0-19.5-3.3-25.9-10c-6.4-6.6-9.9-15.7-10.5-27.2c-0.1-1.4-0.2-3.1-0.2-5.3c0-2.1,0.1-3.9,0.2-5.3
			c0.4-7.4,2.1-13.9,5.2-19.5c3-5.6,7.2-9.9,12.5-12.9c5.3-3,11.5-4.6,18.6-4.6c7.9,0,14.6,1.7,20,5c5.4,3.3,9.5,8.1,12.3,14.3
			c2.8,6.2,4.2,13.4,4.2,21.7v2.7c0,1.2-0.3,2-1,2.7c-0.7,0.6-1.5,0.9-2.6,0.9h-54.3c0,0.1,0,0.3,0,0.6c0,0.3,0,0.6,0,0.8
			c0.2,4.3,1.1,8.3,2.8,12c1.7,3.7,4.1,6.7,7.3,9c3.2,2.3,6.9,3.5,11.2,3.5c3.8,0,6.9-0.6,9.4-1.7c2.5-1.2,4.6-2.4,6.1-3.8
			c1.6-1.4,2.6-2.5,3.1-3.4c0.9-1.3,1.7-2,2.2-2.3c0.5-0.3,1.4-0.4,2.5-0.4h7.7c0.9,0,1.8,0.3,2.4,0.9c0.7,0.6,1,1.4,0.9,2.4
			c-0.1,1.6-0.9,3.5-2.5,5.7c-1.6,2.3-3.8,4.5-6.7,6.7c-2.9,2.2-6.4,4-10.7,5.4C835.9,788.9,831.1,789.6,825.8,789.6z M804.3,741.3
			h43v-0.5c0-4.7-0.9-8.9-2.6-12.6c-1.7-3.7-4.2-6.6-7.5-8.7c-3.2-2.1-7.1-3.2-11.6-3.2c-4.5,0-8.3,1.1-11.5,3.2
			c-3.2,2.1-5.6,5-7.3,8.7c-1.7,3.7-2.5,7.8-2.5,12.6V741.3z"/>
		<path stroke="#FFFFFF" fill="#fff" d="M884.8,788.1c-1,0-1.9-0.3-2.6-1c-0.7-0.7-1-1.5-1-2.6V680.2c0-1,0.3-1.9,1-2.6c0.7-0.7,1.5-1,2.6-1h7.4
			c1.1,0,2,0.3,2.7,1c0.6,0.7,0.9,1.5,0.9,2.6v104.2c0,1-0.3,1.9-0.9,2.6c-0.6,0.7-1.5,1-2.7,1H884.8z"/>
		<path stroke="#FFFFFF" fill="#fff" d="M952.6,789.6c-8,0-14.6-1.5-19.9-4.6c-5.3-3-9.4-7.2-12.2-12.6c-2.8-5.4-4.4-11.5-4.7-18.4c-0.1-1.8-0.2-4.1-0.2-6.8
			c0-2.8,0.1-5,0.2-6.7c0.3-7,1.9-13.2,4.8-18.5c2.9-5.3,7-9.5,12.3-12.6c5.3-3,11.9-4.6,19.8-4.6s14.4,1.5,19.8,4.6
			c5.3,3,9.4,7.2,12.3,12.6c2.9,5.3,4.5,11.5,4.8,18.5c0.1,1.7,0.2,3.9,0.2,6.7c0,2.8-0.1,5.1-0.2,6.8c-0.3,6.9-1.9,13.1-4.7,18.4
			c-2.8,5.4-6.9,9.6-12.2,12.6C967.2,788.1,960.6,789.6,952.6,789.6z M952.6,777.5c6.5,0,11.7-2.1,15.5-6.2c3.9-4.1,6-10.2,6.3-18.1
			c0.1-1.6,0.2-3.6,0.2-6c0-2.4-0.1-4.4-0.2-6c-0.3-7.9-2.4-14-6.3-18.1c-3.9-4.1-9.1-6.2-15.5-6.2c-6.5,0-11.7,2.1-15.6,6.2
			c-3.9,4.1-6,10.2-6.2,18.1c-0.1,1.6-0.2,3.6-0.2,6c0,2.4,0.1,4.4,0.2,6c0.2,8,2.3,14,6.2,18.1
			C940.9,775.5,946.1,777.5,952.6,777.5z"/>
		<path stroke="#FFFFFF" fill="#fff" d="M1013,817.9c-1,0-1.9-0.3-2.6-1c-0.7-0.7-1-1.5-1-2.6V710.1c0-1,0.3-1.9,1-2.6c0.7-0.7,1.5-1,2.6-1h7.2c1,0,1.9,0.3,2.6,1
			c0.7,0.7,1,1.5,1,2.6v6.9c2.5-3.5,5.9-6.3,10-8.6c4.2-2.3,9.4-3.5,15.7-3.5c5.9,0,10.9,1,15,3c4.1,2,7.5,4.7,10.2,8.2
			c2.7,3.5,4.7,7.4,6,11.8c1.4,4.4,2.1,9.1,2.4,14.1c0.1,1.7,0.2,3.5,0.2,5.3c0,1.9-0.1,3.7-0.2,5.3c-0.2,4.9-1,9.6-2.4,14
			c-1.4,4.4-3.4,8.4-6,11.8c-2.7,3.4-6.1,6.1-10.2,8.2c-4.1,2-9.1,3.1-15,3.1c-6.1,0-11.2-1.1-15.3-3.4c-4.1-2.2-7.5-5-10.1-8.4
			v36.4c0,1-0.3,1.9-0.9,2.6c-0.6,0.7-1.5,1-2.5,1H1013z M1046.3,776.9c5.4,0,9.7-1.2,12.8-3.5c3.1-2.4,5.3-5.4,6.7-9.3
			c1.4-3.8,2.1-7.9,2.4-12.3c0.1-3,0.1-6.1,0-9.1c-0.2-4.4-1-8.5-2.4-12.3c-1.4-3.8-3.6-6.9-6.7-9.3c-3.1-2.4-7.4-3.5-12.8-3.5
			c-5.1,0-9.3,1.2-12.5,3.6c-3.2,2.4-5.5,5.5-7.1,9.2c-1.5,3.7-2.4,7.5-2.6,11.4c-0.1,1.7-0.2,3.7-0.2,6c0,2.3,0.1,4.3,0.2,6.1
			c0.1,3.7,1,7.3,2.6,10.8c1.6,3.6,4.1,6.5,7.3,8.8C1037.3,775.8,1041.4,776.9,1046.3,776.9z"/>
		<path stroke="#FFFFFF" fill="#fff" d="M1135.5,789.6c-10.9,0-19.5-3.3-25.9-10c-6.4-6.6-9.9-15.7-10.5-27.2c-0.1-1.4-0.2-3.1-0.2-5.3c0-2.1,0.1-3.9,0.2-5.3
			c0.4-7.4,2.1-13.9,5.2-19.5c3-5.6,7.2-9.9,12.5-12.9c5.3-3,11.5-4.6,18.6-4.6c7.9,0,14.6,1.7,20,5c5.4,3.3,9.5,8.1,12.3,14.3
			c2.8,6.2,4.2,13.4,4.2,21.7v2.7c0,1.2-0.3,2-1,2.7c-0.7,0.6-1.5,0.9-2.6,0.9H1114c0,0.1,0,0.3,0,0.6c0,0.3,0,0.6,0,0.8
			c0.2,4.3,1.1,8.3,2.8,12c1.7,3.7,4.1,6.7,7.3,9c3.2,2.3,6.9,3.5,11.2,3.5c3.8,0,6.9-0.6,9.4-1.7s4.6-2.4,6.1-3.8
			c1.6-1.4,2.6-2.5,3.1-3.4c0.9-1.3,1.7-2,2.2-2.3c0.5-0.3,1.4-0.4,2.5-0.4h7.7c0.9,0,1.8,0.3,2.4,0.9c0.7,0.6,1,1.4,0.9,2.4
			c-0.1,1.6-0.9,3.5-2.5,5.7c-1.6,2.3-3.8,4.5-6.7,6.7c-2.9,2.2-6.4,4-10.7,5.4C1145.6,788.9,1140.8,789.6,1135.5,789.6z
			 M1114,741.3h43v-0.5c0-4.7-0.9-8.9-2.6-12.6c-1.7-3.7-4.2-6.6-7.5-8.7c-3.2-2.1-7.1-3.2-11.6-3.2c-4.5,0-8.3,1.1-11.5,3.2
			c-3.2,2.1-5.6,5-7.3,8.7c-1.7,3.7-2.5,7.8-2.5,12.6V741.3z"/>
		<path stroke="#FFFFFF" fill="#fff" d="M1194.3,788.1c-1,0-1.9-0.3-2.6-1c-0.7-0.7-1-1.5-1-2.6v-74.2c0-1,0.3-1.9,1-2.7c0.7-0.7,1.5-1.1,2.6-1.1h7.2
			c1,0,1.9,0.4,2.7,1.1c0.7,0.7,1.1,1.6,1.1,2.7v6.9c2.1-3.6,5-6.2,8.6-8c3.7-1.8,8.1-2.7,13.3-2.7h6.1c1,0,1.9,0.3,2.6,1
			c0.7,0.7,1,1.5,1,2.6v6.4c0,1-0.3,1.9-1,2.5c-0.7,0.6-1.5,0.9-2.6,0.9h-9.4c-5.7,0-10.1,1.6-13.3,4.9c-3.2,3.3-4.9,7.8-4.9,13.4
			v46.1c0,1-0.4,1.9-1.1,2.6c-0.7,0.7-1.6,1-2.7,1H1194.3z"/>
		<path stroke="#FFFFFF" fill="#fff"  d="M1278.6,789.6c-5.9,0-10.9-0.7-15.1-2.2c-4.2-1.5-7.6-3.2-10.2-5.3c-2.6-2.1-4.6-4.2-5.9-6.3c-1.3-2.1-2-3.8-2.1-5
			c-0.1-1.2,0.3-2,1.1-2.7c0.8-0.6,1.7-0.9,2.5-0.9h7.1c0.5,0,1,0.1,1.3,0.2c0.4,0.2,0.9,0.6,1.5,1.3c1.4,1.5,2.9,2.9,4.6,4.4
			c1.7,1.5,3.7,2.7,6.2,3.6c2.5,0.9,5.5,1.4,9.2,1.4c5.3,0,9.7-1,13.2-3.1c3.5-2,5.2-5,5.2-9c0-2.6-0.7-4.7-2.1-6.3
			c-1.4-1.6-3.9-3-7.5-4.2c-3.6-1.3-8.6-2.6-14.8-3.9c-6.3-1.5-11.3-3.3-14.9-5.4c-3.7-2.1-6.3-4.7-7.8-7.7c-1.6-3-2.4-6.4-2.4-10.1
			c0-3.9,1.2-7.6,3.5-11.2c2.3-3.6,5.7-6.6,10.1-8.9c4.4-2.3,10-3.5,16.7-3.5c5.4,0,10.1,0.7,14,2c3.9,1.4,7.1,3.1,9.6,5.1
			c2.5,2,4.4,4.1,5.7,6c1.3,2,1.9,3.7,2,5c0.1,1-0.2,1.9-0.9,2.6c-0.7,0.7-1.6,1-2.5,1h-6.6c-0.7,0-1.3-0.2-1.8-0.5
			c-0.5-0.3-0.9-0.7-1.3-1.1c-1-1.4-2.3-2.7-3.7-4.1c-1.4-1.4-3.2-2.5-5.5-3.4c-2.3-0.9-5.2-1.3-8.9-1.3c-5.2,0-9.2,1.1-11.8,3.3
			c-2.6,2.2-3.9,5-3.9,8.3c0,2,0.6,3.8,1.7,5.3c1.2,1.6,3.3,3,6.6,4.2c3.2,1.3,8.1,2.6,14.4,4.1c6.9,1.4,12.3,3.2,16.3,5.5
			c4,2.3,6.8,5,8.5,8c1.7,3,2.5,6.5,2.5,10.5c0,4.4-1.3,8.4-3.8,12.1c-2.5,3.7-6.3,6.6-11.3,8.7
			C1292.1,788.6,1285.9,789.6,1278.6,789.6z"/>
	</g>
	<g>
		<path stroke="#FFFFFF" fill="#fff"  d="M473.9,559.9c0-2.6-3.1-58.6-46.8-103.3c0.5-5.7,0.5-11.8,0.5-17.5c0-68.9-22.6-131.6-60.7-168.6l-6.2-5.7l-6.7,5.1
			c-41.6,30.8-69.4,101.8-69.4,176.3c0,3.1,0,6.2,0.5,9.3c-44.7,45.2-47.8,102.3-47.8,104.9v47.3c0,7.7,5.1,13.9,12.3,15.4
			c1,0.5,2.6,0.5,3.6,0.5c6.2,0,11.8-3.6,14.4-9.3c11.8-25.7,25.7-45.2,40.1-55.5c2.1,4.1,4.1,8.7,6.2,12.9l3.1,5.7l29.3,0.5v25.7
			c0,5.7,4.6,10.3,10.3,10.3s10.3-4.6,10.3-10.3v-25.7l24.7,0.5l3.1-5.1c2.6-4.6,5.7-9.8,7.7-14.9c14.4,10.3,29.3,29.8,41.6,56.6
			c2.6,5.7,8.2,9.3,14.4,9.3c1,0,2.6,0,3.6-0.5c7.2-1.5,12.3-8.2,12.3-15.4L473.9,559.9z M257.4,588.7v-27.8
			c0-0.5,2.1-40.1,29.8-76.6c2.6,19.5,6.7,38,12.9,55C282.1,550.7,267.7,570.2,257.4,588.7L257.4,588.7z M379.3,557.3h-12.9v-14.4
			c0-5.7-4.6-10.3-10.3-10.3c-5.7,0-10.3,4.6-10.3,10.3v13.9h-17c-15.4-31.4-23.6-70.4-23.6-110.5c0-63.2,22.1-124.4,54-154.2
			c29.8,33.4,47.8,88.4,47.8,147C407.1,482.8,397.3,524.4,379.3,557.3L379.3,557.3z M453.3,588.7c-10.8-19-25.2-38.6-43.2-49.9
			c6.2-17,10.8-35,13.9-54.5c27.2,36.5,29.3,75.6,29.3,76.1V588.7z"/>
		<path stroke="#FFFFFF" fill="#fff"  d="M356.2,639.1c-5.7,0-10.3,4.6-10.3,10.3V710c0,5.7,4.6,10.3,10.3,10.3c5.7,0,10.3-4.6,10.3-10.3v-60.7
			C366.4,643.7,361.8,639.1,356.2,639.1L356.2,639.1z"/>
		<path stroke="#FFFFFF" fill="#fff"  d="M319.1,593.8c-5.7,0-10.3,4.6-10.3,10.3v60.7c0,5.7,4.6,10.3,10.3,10.3c5.7,0,10.3-4.6,10.3-10.3v-60.7
			C329.4,598.5,324.8,593.8,319.1,593.8z"/>
		<path stroke="#FFFFFF" fill="#fff"  d="M393.2,593.8c-5.7,0-10.3,4.6-10.3,10.3v60.7c0,5.7,4.6,10.3,10.3,10.3c5.7,0,10.3-4.6,10.3-10.3l0-60.7
			C403.5,598.5,398.8,593.8,393.2,593.8L393.2,593.8z"/>
		<path  stroke="#FFFFFF" fill="#fff" d="M359.2,391.8c-19.5,0-35.5,15.9-35.5,35.5s15.9,35.5,35.5,35.5c19.5,0,35.5-15.9,35.5-35.5
			C394.2,407.7,378.8,391.8,359.2,391.8L359.2,391.8z M359.2,441.7c-8.2,0-14.9-6.7-14.9-14.9c0-8.2,6.7-14.9,14.9-14.9
			c8.2,0,14.9,6.7,14.9,14.9C374.1,435,367.5,441.7,359.2,441.7z"/>
	</g>
</g>
</svg>
