<?xml version="1.0" standalone="no"?>
<!DOCTYPE svg PUBLIC "-//W3C//DTD SVG 20010904//EN"
 "http://www.w3.org/TR/2001/REC-SVG-20010904/DTD/svg10.dtd">
<svg version="1.0" xmlns="http://www.w3.org/2000/svg"
 width="616.000000pt" height="980.000000pt" viewBox="0 0 616.000000 980.000000"
 preserveAspectRatio="xMidYMid meet">

<g transform="translate(0.000000,980.000000) scale(0.100000,-0.100000)"
fill="#000000" stroke="none">
<path d="M3003 9780 c-50 -30 -324 -301 -435 -430 -738 -856 -1258 -2084
-1472 -3480 -59 -382 -76 -605 -76 -998 l-1 -277 -31 -20 c-26 -16 -125 -186
-501 -854 -303 -538 -471 -846 -474 -870 -3 -26 54 -260 207 -846 116 -445
219 -826 228 -845 25 -50 74 -80 134 -80 27 0 58 5 69 11 38 20 864 581 887
603 58 52 60 83 36 441 l-7 90 101 -150 c55 -82 130 -187 166 -232 85 -104
265 -293 280 -293 6 0 26 26 45 58 18 31 54 92 78 134 l45 77 -84 93 c-87 98
-188 222 -188 232 0 3 482 6 1070 6 589 0 1070 -3 1070 -6 0 -11 -127 -168
-199 -246 l-71 -76 81 -136 c45 -75 85 -136 89 -136 12 0 198 197 266 280 81
101 182 242 229 323 21 37 41 65 43 62 2 -2 -2 -94 -8 -204 -13 -216 -10 -255
21 -294 11 -14 221 -162 467 -328 419 -284 450 -303 497 -306 57 -5 107 16
137 58 29 39 451 1664 445 1712 -7 55 -916 1671 -965 1715 l-37 33 -1 292 c-2
402 -24 651 -94 1073 -224 1360 -734 2546 -1453 3379 -109 126 -290 311 -389
396 -65 56 -71 59 -121 59 -34 0 -63 -7 -84 -20z m201 -481 c440 -456 817
-1068 1100 -1788 31 -79 56 -145 54 -146 -6 -5 -337 -65 -438 -79 -557 -80
-1189 -85 -1740 -15 -103 13 -383 59 -388 63 -5 6 85 237 156 401 220 509 514
994 831 1370 86 102 290 315 301 315 4 0 60 -54 124 -121z m1310 -2401 c140
-483 247 -1037 291 -1503 95 -1002 -101 -2276 -453 -2938 l-47 -87 -1225 2
-1225 3 -36 66 c-322 590 -526 1722 -481 2667 18 372 56 668 137 1077 62 311
190 814 215 839 5 5 90 -5 197 -22 379 -62 589 -81 978 -89 337 -6 591 4 890
38 191 21 487 68 620 98 44 10 83 15 87 12 4 -3 27 -77 52 -163z m-3419 -3108
c25 -179 78 -455 113 -592 16 -63 18 -84 9 -118 -9 -32 -4 -167 21 -612 18
-314 29 -574 25 -578 -27 -24 -576 -390 -580 -387 -2 3 -81 298 -174 656
l-170 651 358 635 358 636 8 -58 c4 -32 18 -137 32 -233z m4379 -363 l348
-618 -167 -642 c-92 -353 -171 -648 -174 -655 -5 -8 -97 48 -296 183 -159 108
-291 198 -292 199 -2 2 12 261 31 577 29 487 32 580 21 612 -11 32 -10 47 6
110 48 184 123 607 145 820 5 58 8 65 19 50 6 -10 168 -296 359 -636z"/>
<path d="M2920 6157 c-182 -62 -331 -205 -444 -428 -326 -641 -178 -1620 293
-1933 379 -252 804 -19 997 547 121 352 124 811 8 1168 -93 287 -260 516 -446
610 -126 64 -286 78 -408 36z m294 -220 c73 -34 175 -131 232 -223 130 -208
194 -466 194 -781 0 -458 -164 -849 -412 -984 -58 -31 -70 -34 -148 -34 -70 0
-93 4 -130 24 -118 62 -196 145 -275 294 -162 304 -202 770 -100 1154 77 291
238 510 418 569 61 20 153 12 221 -19z"/>
<path d="M2524 1686 l-34 -34 0 -575 0 -575 26 -31 c46 -55 131 -51 171 8 17
24 18 65 21 551 2 289 0 549 -3 579 -9 73 -45 111 -105 111 -34 0 -48 -6 -76
-34z"/>
<path d="M3081 1706 c-49 -27 -50 -36 -51 -418 l0 -358 29 -32 c25 -28 36 -33
76 -33 40 0 51 5 76 33 l29 32 0 366 0 366 -29 29 c-33 32 -87 39 -130 15z"/>
<path d="M3599 1691 l-29 -29 0 -797 0 -797 35 -35 c32 -32 39 -35 78 -30 30
4 50 15 70 37 l27 30 0 785 c0 587 -3 791 -12 810 -27 60 -120 74 -169 26z"/>
</g>
</svg>
