<?xml version="1.0" encoding="UTF-8" standalone="no"?>
<svg
   xmlns:dc="http://purl.org/dc/elements/1.1/"
   xmlns:cc="http://creativecommons.org/ns#"
   xmlns:rdf="http://www.w3.org/1999/02/22-rdf-syntax-ns#"
   xmlns:svg="http://www.w3.org/2000/svg"
   xmlns="http://www.w3.org/2000/svg"
   viewBox="0 0 1155.3333 328.69333"
   height="328.69333"
   width="1155.3333"
   xml:space="preserve"
   id="svg2"
   version="1.1"><metadata
     id="metadata8"><rdf:RDF><cc:Work
         rdf:about=""><dc:format>image/svg+xml</dc:format><dc:type
           rdf:resource="http://purl.org/dc/dcmitype/StillImage" /></cc:Work></rdf:RDF></metadata><defs
     id="defs6" /><g
     transform="matrix(1.3333333,0,0,-1.3333333,0,328.69333)"
     id="g10"><g
       transform="scale(0.1)"
       id="g12"><path
         id="path14"
         style="fill:#4cb6eb;fill-opacity:0.9;fill-rule:nonzero;stroke:none"
         d="M 1576.04,2301.63 C 739.32,2301.63 61.0703,1867.71 61.0703,1332.4 61.0703,797.141 739.32,363.219 1576.04,363.219 c 836.74,0 1515.02,433.922 1515.02,969.181 0,535.31 -678.28,969.23 -1515.02,969.23" /><path
         id="path16"
         style="fill:#FFFFFF;fill-opacity:1;fill-rule:nonzero;stroke:none"
         d="m 8438.75,1459.42 c -27.62,-36.64 -67.07,-54.95 -118.71,-54.95 -51.48,0 -91.16,18.31 -118.98,54.95 -27.84,36.6 -41.69,88.71 -41.69,156.23 0,67.43 13.85,119.41 41.69,155.83 27.82,36.41 67.5,54.63 118.98,54.63 51.64,0 91.09,-18.22 118.71,-54.63 27.54,-36.42 41.4,-88.4 41.4,-155.83 0,-67.52 -13.86,-119.63 -41.4,-156.23 z m 140.9,408.76 c -56.85,71.28 -143.19,106.88 -259.05,106.88 -115.73,0 -202.09,-35.6 -258.91,-106.88 -56.93,-71.21 -85.4,-155.4 -85.4,-252.53 0,-98.86 28.47,-183.35 85.4,-253.69 56.82,-70.08 143.18,-105.27 258.91,-105.27 115.86,0 202.2,35.19 259.05,105.27 56.93,70.34 85.33,154.83 85.33,253.69 0,97.13 -28.4,181.32 -85.33,252.53" /><path
         id="path18"
         style="fill:#FFFFFF;fill-opacity:1;fill-rule:nonzero;stroke:none"
         d="m 7036.6,1542.61 c -1.17,-59.11 -18.14,-99.83 -50.65,-122.16 -32.55,-22.34 -68.09,-33.53 -106.64,-33.53 -24.43,0 -45.09,6.78 -62.11,20.19 -16.98,13.44 -25.43,35.27 -25.43,65.46 0,33.87 13.86,58.85 41.68,75.01 16.56,9.46 43.56,17.62 81.28,24.09 l 40.3,7.47 c 20.03,3.81 35.82,7.87 47.34,12.24 11.66,4.23 22.92,9.84 34.23,16.96 z m 89.59,385.17 c -57.65,29.24 -123.68,44 -197.96,44 -114.18,0 -194.78,-29.82 -241.67,-89.28 -29.5,-38.09 -46.07,-86.64 -49.92,-145.76 h 170.61 c 4.18,26.09 12.57,46.75 25.16,62.02 17.6,20.67 47.5,30.99 89.79,30.99 37.8,0 66.36,-5.19 85.91,-15.85 19.42,-10.51 29.22,-29.66 29.22,-57.3 0,-22.78 -12.66,-39.45 -38.13,-50.27 -14.18,-6.21 -37.7,-11.37 -70.69,-15.49 l -60.46,-7.45 c -68.7,-8.65 -120.85,-23.18 -156.16,-43.47 -64.62,-37.21 -96.86,-97.31 -96.86,-180.43 0,-64.02 19.97,-113.58 60.2,-148.51 40.01,-34.93 91.01,-49.58 152.52,-52.44 385.8,-17.23 381.44,203.3 384.98,249.16 v 253.85 c 0,81.39 -28.89,136.85 -86.54,166.23" /><path
         id="path20"
         style="fill:#FFFFFF;fill-opacity:1;fill-rule:nonzero;stroke:none"
         d="m 6246.52,1820.58 c 44.11,0 76.46,-13.62 97.41,-40.84 14.35,-20.15 23.32,-42.86 26.81,-68.04 h 190.29 c -10.44,96 -44.04,163.03 -100.75,201 -56.9,37.8 -129.78,56.86 -218.89,56.86 -104.81,0 -187.15,-32.2 -246.59,-96.45 -59.61,-64.35 -89.41,-154.27 -89.41,-269.87 0,-102.36 26.95,-185.8 80.88,-250.1 53.92,-64.26 138.07,-96.45 252.38,-96.45 114.46,0 200.87,38.55 259.07,115.64 36.53,47.77 56.99,98.49 61.29,152.11 h -189.65 c -3.86,-35.44 -14.92,-64.35 -33.29,-86.61 -18.29,-22.16 -49.12,-33.36 -92.74,-33.36 -61.43,0 -103.24,28 -125.46,84.15 -12.15,29.95 -18.31,69.6 -18.31,118.94 0,51.76 6.16,93.25 18.31,124.62 23.09,58.87 66.03,88.4 128.65,88.4" /><path
         id="path22"
         style="fill:#FFFFFF;fill-opacity:1;fill-rule:nonzero;stroke:none"
         d="m 5854.38,1969.56 c -390.9,0 -367.77,-346.11 -367.77,-346.11 V 1271.88 H 5664 v 329.76 c 0,54.02 6.85,94.03 20.34,120.05 24.37,46.11 71.89,69.25 142.84,69.25 5.35,0 12.37,-0.29 21.04,-0.69 8.62,-0.42 18.44,-1.2 29.72,-2.5 v 180.48 c -7.87,0.54 -12.98,0.75 -15.18,0.98 -2.29,0.2 -5.08,0.35 -8.38,0.35" /><path
         id="path24"
         style="fill:#FFFFFF;fill-opacity:1;fill-rule:nonzero;stroke:none"
         d="m 4964.3,1785.86 c 24.99,25.62 60.01,38.48 105.21,38.48 41.6,0 76.4,-12.05 104.55,-36.33 28,-24.18 43.69,-59.74 46.86,-106.42 h -303.51 c 6.34,43.87 22.05,78.58 46.89,104.27 z m 238.47,-330.29 c -7.45,-10.62 -15.45,-19.73 -24.3,-26.82 -25.05,-20.64 -59.07,-26.91 -99.15,-26.91 -37.92,0 -67.56,5.74 -94.42,22.67 -44.27,27.2 -69.16,73.24 -71.82,140.82 h 490.82 c 0.69,58.17 -1.2,102.72 -5.9,133.73 -8.15,52.78 -26.08,99.3 -53.64,139.33 -30.6,45.4 -69.55,78.63 -116.47,99.74 -46.98,20.95 -99.75,31.48 -158.38,31.48 -98.84,0 -179.08,-31.15 -240.99,-93.38 -61.86,-62.37 -92.94,-151.79 -92.94,-268.52 0,-124.61 34.31,-214.54 102.91,-269.8 68.52,-55.26 147.74,-82.94 237.36,-82.94 108.61,0 193.15,32.76 253.48,98.32 32.57,34.49 52.96,68.63 61.56,102.28 h -188.12" /><path
         id="path26"
         style="fill:#FFFFFF;fill-opacity:1;fill-rule:nonzero;stroke:none"
         d="m 4664.36,1271.95 h -162.03 v 408 c 0,37.29 -12.3,125.95 -119.19,125.95 -71.26,0 -122.82,-51.4 -122.82,-125.95 v -408 h -162.19 v 408 c 0,37.29 -11.06,125.95 -117.88,125.95 -72.5,0 -122.89,-51.4 -122.89,-125.95 v -408 h -162.12 v 404.12 c 0,168.47 111.74,295.84 285.01,295.84 86.01,0 155.96,-36.11 201.47,-93.97 47.86,57.86 119.07,93.97 201.42,93.97 176.89,0 281.22,-122.21 281.22,-295.84 v -404.12" /><path
         id="path28"
         style="fill:#FFFFFF;fill-opacity:1;fill-rule:nonzero;stroke:none"
         d="m 7710.78,1457.96 c -25.89,-37.12 -63.96,-55.65 -113.71,-55.65 -49.96,0 -87.12,18.7 -111.6,55.96 -24.49,37.35 -36.72,91.7 -36.72,153.9 0,57.72 11.97,106.04 36.11,144.99 24.05,38.9 61.82,58.45 113.38,58.45 33.83,0 63.45,-10.73 89.08,-32.14 41.61,-35.47 62.42,-99.08 62.42,-181.45 0,-58.94 -13.02,-106.95 -38.96,-144.06 z m 212.76,724.67 c 0,0 -178.68,19.08 -178.68,-124.45 l -0.13,-190.02 c -19.77,31.75 -45.51,56.59 -77.24,74.47 -31.66,17.91 -67.92,26.93 -108.84,26.93 -88.62,0 -159.24,-33 -212.26,-98.92 -53.03,-65.98 -79.4,-161.05 -79.4,-276 0,-99.75 26.86,-181.54 80.66,-245.23 53.77,-63.59 159.24,-91.52 252.89,-91.52 326.64,0 322.87,280.11 322.87,280.11 l 0.13,644.63" /><path
         id="path30"
         style="fill:#FFFFFF;fill-opacity:1;fill-rule:nonzero;stroke:none"
         d="m 4169.86,626.039 c 0,66.891 -13.01,118.289 -39.19,154.383 -26.05,35.879 -63.42,54.058 -112.11,54.058 -46.88,0 -83.42,-18.179 -109.61,-54.058 -24.26,-32.633 -36.36,-84.242 -36.36,-154.383 0,-65.391 12.97,-114.078 39.1,-146.699 26,-36.09 63.44,-54.07 112.12,-54.07 45.13,0 80.81,17.98 106.86,54.07 26.18,36.012 39.19,84.762 39.19,146.699 M 3872.59,146.051 c 0,-24.012 -8.73,-44.621 -26.2,-61.7307 -17.31,-17.1797 -38.19,-25.75 -62.55,-25.75 h -88.6 V 674.969 c 0,119.871 40.41,194.953 106.89,245.691 43.95,33.539 109.43,65.539 232.07,65.539 82.82,0 179.83,-32.14 232.21,-96.008 58.79,-71.851 83.3,-151.89 83.3,-256.441 0,-108.148 -26.06,-195.398 -78.18,-262.469 -52.13,-65.25 -119.12,-97.75 -200.84,-97.75 -43.45,0 -81.66,7.731 -114.66,23.071 -34.92,17.199 -62.58,43.757 -83.44,79.828 V 146.051" /><path
         id="path32"
         style="fill:#FFFFFF;fill-opacity:1;fill-rule:nonzero;stroke:none"
         d="m 5233.07,625.941 c 0,-118.23 34.2,-183.75 102.49,-196.722 68.21,-12.637 118.63,3.191 151.09,47.679 15.38,18.731 26.42,48.411 33.27,88.602 6.77,40.25 7.31,80.129 1.31,119.52 -5.88,39.519 -20.06,74.652 -42.3,105.511 -22.12,30.778 -54.62,46.278 -97.3,46.278 -58.08,0 -97.25,-21.528 -117.78,-64.188 -20.63,-42.941 -30.78,-91.769 -30.78,-146.68 m 292.01,-295.582 v 43.563 c -30.7,-48.082 -72.19,-77.871 -124.23,-89.973 -52.14,-11.91 -103.76,-7.648 -154.88,12.961 -51.3,20.481 -95.31,58.66 -132.04,114.289 -36.65,55.879 -54.98,129.129 -54.98,220 0,106.121 24.35,192.36 72.93,258.313 48.7,65.949 126.88,96.058 234.42,99 105.98,2.789 167.6,-21.192 227.94,-66.871 65.97,-50.082 104.97,-126.903 104.97,-246.782 V 312.211 C 5699.48,196.809 5619.02,-17.0508 5366.3,1.08203 5209.73,12.4297 5122.82,76.6719 5074.34,222.219 h 186.94 c 13.66,-23.93 34.55,-42.367 62.85,-55.11 28.01,-13.039 56.36,-16.359 84.34,-10.347 28.15,5.976 53.79,22.758 77,50.066 22.92,27.442 36.13,68.633 39.61,123.531" /><path
         id="path34"
         style="fill:#FFFFFF;fill-opacity:1;fill-rule:nonzero;stroke:none"
         d="m 4817.57,554.43 c -1.11,-59.18 -18.09,-99.809 -50.58,-122.168 -32.5,-22.301 -68.05,-33.473 -106.62,-33.473 -24.43,0 -45.09,6.762 -62.06,20.152 -17.05,13.399 -25.56,35.278 -25.56,65.469 0,33.828 13.94,58.852 41.76,75.012 16.58,9.469 43.53,17.598 81.26,24.058 l 40.27,7.489 c 20.13,3.812 35.91,7.82 47.29,12.203 11.71,4.238 22.98,9.879 34.24,16.988 z m 89.66,385.16 c -57.72,29.172 -123.73,43.961 -197.95,43.961 -114.25,0 -194.76,-29.801 -241.72,-89.242 -29.43,-38.059 -46.07,-86.618 -49.89,-145.789 h 170.7 c 4.17,26.109 12.5,46.769 25.11,62.019 17.61,20.66 47.53,31.012 89.76,31.012 37.88,0 66.4,-5.211 85.89,-15.832 19.42,-10.539 29.23,-29.649 29.23,-57.36 0,-22.738 -12.67,-39.48 -38.12,-50.25 -14.14,-6.187 -37.66,-11.347 -70.66,-15.488 l -60.47,-7.383 c -68.67,-8.699 -120.87,-23.258 -156.12,-43.5 -64.67,-37.187 -96.91,-97.308 -96.91,-180.379 0,-64.039 19.98,-113.609 60.2,-148.519 40.01,-34.91 91,-49.629 152.53,-52.461 385.69,-17.238 381.36,203.332 384.89,249.16 v 253.852 c 0,81.418 -28.79,136.769 -86.47,166.199" /><path
         id="path36"
         style="fill:#FFFFFF;fill-opacity:1;fill-rule:nonzero;stroke:none"
         d="m 6229.22,475.012 c -27.54,-36.66 -67.07,-54.973 -118.6,-54.973 -51.54,0 -91.26,18.313 -118.99,54.973 -27.93,36.547 -41.74,88.636 -41.74,156.117 0,67.449 13.81,119.43 41.74,155.801 27.73,36.492 67.45,54.621 118.99,54.621 51.53,0 91.06,-18.129 118.6,-54.621 27.65,-36.371 41.41,-88.352 41.41,-155.801 0,-67.481 -13.76,-119.57 -41.41,-156.117 m 141,408.648 c -56.94,71.34 -143.3,106.891 -259.16,106.891 -115.62,0 -202,-35.551 -258.88,-106.891 -56.92,-71.191 -85.36,-155.332 -85.36,-252.531 0,-98.828 28.44,-183.289 85.36,-253.617 56.88,-70.051 143.26,-105.223 258.88,-105.223 115.86,0 202.22,35.172 259.16,105.223 56.84,70.328 85.19,154.789 85.19,253.617 0,97.199 -28.35,181.34 -85.19,252.531" /><path
         id="path38"
         style="fill:#293576;fill-opacity:1;fill-rule:nonzero;stroke:none"
         d="m 1576.04,363.219 c -836.72,0 -1514.9697,433.922 -1514.9697,969.181 0,535.31 678.2497,969.23 1514.9697,969.23 836.74,0 1515.02,-433.92 1515.02,-969.23 0,-535.259 -678.28,-969.181 -1515.02,-969.181 z m -0.29,1999.261 C 705.586,2362.48 0.175781,1899.65 0.175781,1331.9 0.175781,1317.24 0,1276.7 0,1271.56 0,669.25 616.566,181.422 1575.55,181.422 c 964.93,0 1575.84,487.687 1575.84,1090.028 0,21.06 0,33.16 0,60.45 0,567.75 -705.43,1030.58 -1575.64,1030.58" /><path
         id="path40"
         style="fill:#ffffff;fill-opacity:1;fill-rule:nonzero;stroke:none"
         d="m 3086.71,1410.1 -41.31,-6.12 -189.75,9.18 -403.77,-47.98 -364.38,-132.58 20.65,539.4 80.34,224.93 75.74,4.59 75.75,20.66 158.37,55.09 107.88,11.48 45.9,21.25 -18.35,79.74 -64.28,22.75 22.96,82.83 -57.39,57.39 -151.49,93.34 h -41.31 l -144.6,-123.18 -167.56,-197.4 -199.69,-381.02 -268.74,-612.84 -119.16,241 -323.64,704.66 -44.31,36.7 -238.773,278.52 -84.164,53.56 -58.145,-16.84 -157.613,-120.88 -3.059,-90.28 -32.132,-13.77 -48.969,-64.28 45.906,-41.31 128.535,-21.42 301.364,-89.57 14.625,-8.77 27.543,-85.28 64.182,-217.6 0.09,-420.49 -52.796,-11.48 -107.883,41.32 -383.308,96.4 -190.508,16.06 -239.9533,-13.72 C 61.0703,1036.35 238.43,876.949 238.43,876.949 l 76.855,36.063 348.305,-60.774 542.51,13.114 282.32,47.66 73.26,93.498 45.67,-83.311 279.69,-71.621 h 410.09 l 345.82,42.852 153.02,16.832 99.99,-53.942 c 218.62,218.17 190.75,552.78 190.75,552.78" /><path
         id="path42"
         style="fill:#293576;fill-opacity:1;fill-rule:nonzero;stroke:none"
         d="m 1530.52,984.09 c -50.73,-74.11 -130.43,-88.949 -208.98,-93.91 -36.59,-2.328 -73.21,-5.09 -109.83,-7.86 -128.35,-9.699 -261.069,-19.73 -391.112,-9.23 l -12.414,0.988 c -139.118,11.211 -282.973,22.781 -419.469,53.66 -65.168,14.731 -99.75,5.711 -137.051,-35.75 -4.504,-5 -28.324,-30.226 -32.781,-45.769 -1.789,-6.219 8.707,-9.75 10.711,-11.559 7,-6.32 41.148,27.481 47.441,34.488 28.66,31.864 51.028,37.301 104.149,25.274 138.871,-31.383 283.957,-43.07 424.261,-54.371 l 12.403,-1.012 c 40.289,-3.23 80.699,-4.559 121.078,-4.559 92.614,0 185.054,6.989 275.354,13.801 36.49,2.758 72.96,5.5 109.42,7.821 83,5.269 175.84,22.289 234.99,108.718 5.33,7.77 3.34,18.399 -4.44,23.731 -7.78,5.328 -18.39,3.308 -23.73,-4.461" /><path
         id="path44"
         style="fill:#293576;fill-opacity:1;fill-rule:nonzero;stroke:none"
         d="m 3095.85,1418.01 c -4.56,8.24 -14.95,11.24 -23.2,6.67 -26.05,-14.45 -51.24,-7.14 -80.41,1.37 -20.87,6.08 -42.4,12.45 -66.03,11 -229.4,-13.07 -462.47,-58.63 -712.51,-139.26 -27.8,-8.97 -55.54,-19.14 -82.36,-28.98 -7.9,-2.89 -15.82,-5.75 -23.74,-8.62 0.68,19.66 1.37,39.34 2.09,59 3.87,105.29 7.85,214.16 5.37,321.37 -2.58,112.37 31.22,214.5 69.13,317.89 8.59,23.39 13.82,33.44 49.64,27.54 51.15,-8.53 108.85,13.07 153.4,32.86 62.01,27.52 118.25,49.96 181.01,48.08 51.75,-2.04 85.08,24.48 94.1,73.78 11.53,63.11 -38.51,77.92 -71.62,87.7 -0.7,0.21 -1.39,0.07 -2.1,0.18 8.91,17.54 16.88,37.54 23.72,60.68 1.6,5.38 0.45,11.2 -3.07,15.57 -36.35,45.09 -85.04,76.37 -132.12,106.62 -17.62,11.32 -35.85,23.02 -52.95,35.19 -38.27,27.21 -84.76,21.35 -130.84,-16.55 -202.52,-166.45 -360.35,-389.23 -482.51,-681.06 -21.68,-51.77 -42.93,-103.75 -64.18,-155.71 -58.85,-143.95 -119.89,-292.35 -189.43,-434.53 l -47.16,106.88 c -37.25,84.52 -74.52,169.04 -112.14,253.4 -19.14,42.96 -38.17,85.97 -57.2,128.98 -53.27,120.41 -108.35,244.9 -165.42,366.08 -62.12,131.89 -165.85,229.49 -266.152,323.87 -34.309,32.29 -69.793,65.67 -102.871,99.79 -33.457,34.5 -84.563,32.36 -106.5,15.65 -17.535,-13.4 -36.957,-25.68 -55.734,-37.56 -39.735,-25.13 -80.821,-51.14 -111.473,-91.15 -25.344,-33.08 -30.012,-68.8 -15.621,-99.06 -32.731,-8.73 -65.567,-25.88 -77.559,-81.67 -1.312,-6.12 0.82,-12.47 5.57,-16.54 3.891,-3.35 8.575,-8.57 13.536,-14.1 14.562,-16.26 31.066,-34.68 52.718,-35.59 59.914,-2.57 115.016,-21.87 173.36,-42.33 58.914,-20.65 119.828,-41.99 185.281,-43.94 36.496,-1.08 52.355,-9.68 60.609,-32.92 4.028,-11.32 8.153,-22.66 12.286,-34 17.953,-49.27 36.523,-100.23 46.078,-151.23 15.142,-80.9 12.722,-164.68 10.39,-245.69 -2.515,-87.22 -5.117,-177.25 13.932,-265.12 -24.807,-6.92 -43.545,2.9 -64.717,14.05 -9.414,4.97 -19.144,10.1 -29.555,13.67 -188.503,64.86 -390.46,128.09 -606.144,128.09 -1.93,0 -3.887,0 -5.82,-0.01 -56.528,-0.3 -113.063,-0.24 -169.61,-0.14 l -77.8123,0.07 c -9.4297,0 -17.0703,-7.63 -17.0703,-17.07 0,-9.44 7.6406,-17.07 17.0703,-17.07 l 77.7653,-0.07 c 56.61,-0.1 113.211,-0.16 169.844,0.13 1.875,0.02 3.731,0.02 5.613,0.02 210.411,0 409.301,-62.32 595.063,-126.22 7.918,-2.74 16.086,-7.04 24.738,-11.6 17.918,-9.44 38.727,-20.41 64.274,-20.41 13.201,0 27.671,2.94 43.651,10.52 7.34,3.47 11.21,11.62 9.27,19.5 -21.64,87.99 -19.08,176.72 -16.37,270.67 2.4,82.82 4.86,168.47 -10.96,252.97 -10.07,53.76 -29.127,106.05 -47.556,156.64 -4.102,11.25 -8.192,22.5 -12.188,33.73 -16.836,47.38 -57.886,54.61 -91.765,55.63 -60.172,1.77 -115.95,21.32 -175,42.03 -58.133,20.37 -118.235,41.42 -183.2,44.21 -7.285,0.31 -20.199,14.71 -28.746,24.27 -3.027,3.36 -5.961,6.65 -8.875,9.68 10.493,35.59 32.469,43.12 61.77,49.51 0.875,0.19 1.543,0.72 2.355,1.04 1.903,-1.73 3.473,-3.6 5.559,-5.26 37.547,-29.68 114.871,-90.56 202.394,-30.45 27.618,-33.87 58.184,-66.01 96.852,-91.01 2.867,-1.84 6.078,-2.72 9.254,-2.72 5.598,0 11.082,2.74 14.348,7.79 5.125,7.92 2.851,18.49 -5.063,23.61 -52.234,33.77 -88.367,81.71 -126.625,132.49 -12.906,17.12 -26.25,34.82 -40.152,51.78 -5.965,7.27 -16.727,8.32 -24.024,2.36 -7.289,-5.98 -8.347,-16.73 -2.363,-24.03 13.453,-16.39 26.578,-33.81 39.273,-50.66 5.727,-7.6 11.512,-15.23 17.356,-22.85 -54.574,-36.44 -102.043,-15.42 -160.074,30.47 -39.11,30.93 -20.696,67.19 -6.239,86.06 26.95,35.19 63.707,58.45 102.625,83.07 19.403,12.27 39.473,24.97 58.192,39.27 8.219,6.29 39.883,9.78 61.281,-12.28 33.621,-34.67 69.387,-68.33 103.988,-100.87 97.985,-92.2 199.303,-187.54 258.653,-313.55 56.91,-120.84 111.9,-245.15 165.09,-365.37 19.05,-43.04 38.08,-86.08 57.25,-129.06 37.59,-84.32 74.83,-168.8 112.07,-253.27 l 50.15,-113.66 c 2.6,-5.87 8.13,-9.39 14.1,-9.94 -12.64,-30.78 -12.52,-68.7 0.83,-107.96 19.19,-56.459 62.12,-106.639 112.03,-130.952 36.33,-17.66 78.88,-28.507 126.47,-32.25 l 24.44,-1.91 c 129.2,-10.168 261.59,-20.578 393.97,-20.578 49.1,0 98.22,1.43 147.14,4.828 122.35,8.543 252.79,21.032 377.76,54.34 68.24,18.133 101,-0.637 137.6,-41.68 6.27,-7.027 31.48,-35 38.36,-17.488 10.78,27.41 -6.61,33.16 -12.87,40.192 -42.28,47.449 -87.74,74.437 -171.87,51.949 -122.21,-32.563 -250.7,-44.832 -371.34,-53.231 -178.32,-12.468 -360.18,1.852 -536.07,15.711 l -24.45,1.91 c -43.31,3.379 -81.73,13.118 -114.21,28.93 -42.01,20.449 -78.27,63.051 -94.64,111.219 -11.48,33.75 -11.27,65.44 0.57,89.2 74.85,150.19 139.22,307.62 201.46,459.87 21.21,51.88 42.42,103.75 64.06,155.47 119.97,286.55 274.59,505.01 472.7,667.85 23.38,19.23 57.89,37.52 89.39,15.08 17.75,-12.62 36.32,-24.54 54.28,-36.07 44.17,-28.39 86.05,-55.3 118.24,-92.45 -17.66,-55.53 -41.16,-89.9 -71.68,-104.96 -28.13,-13.85 -65.27,-12.54 -112.98,3.69 23.13,30 43.55,61 62.8,90.5 5.15,7.9 2.93,18.47 -4.96,23.62 -7.9,5.18 -18.48,2.95 -23.63,-4.95 -46.27,-70.89 -98.72,-151.22 -182.02,-199.41 -8.17,-4.72 -10.95,-15.15 -6.23,-23.32 3.17,-5.47 8.9,-8.51 14.79,-8.51 2.9,0 5.84,0.73 8.53,2.29 42.97,24.86 77.74,56.97 107.76,91.7 62.39,-23.44 111.88,-25.55 151.05,-6.23 20.02,9.88 37.37,25.49 52.37,46.93 2.11,-2.68 4.79,-4.94 8.3,-5.97 39,-11.54 53.21,-18.72 47.71,-48.83 -6,-32.82 -24.36,-46.69 -59.38,-45.81 -69.6,2.74 -130.06,-21.7 -195.99,-50.98 -37.05,-16.46 -91.23,-37.55 -133.94,-30.39 -54.16,8.96 -74.02,-13.23 -87.31,-49.45 -39.07,-106.61 -73.93,-212.09 -71.19,-330.45 2.45,-106.17 -1.53,-214.53 -5.37,-319.32 -0.96,-26.1 -1.91,-52.21 -2.78,-78.3 -1.86,-2 -5.91,-5.16 -8.5,-7.18 -3.99,-3.13 -7.96,-6.3 -11.12,-9.45 -6.66,-6.67 -6.66,-17.47 0,-24.14 3.34,-3.34 7.7,-5 12.07,-5 4.37,0 8.74,1.66 12.08,5 2.26,2.27 5.15,4.47 8.02,6.7 5.1,3.99 10.81,8.55 15.09,14.08 1.57,0.1 3.14,0.26 4.7,0.82 12.67,4.52 25.32,9.15 37.96,13.79 26.52,9.72 53.93,19.77 81.09,28.52 247.24,79.75 477.51,124.78 703.98,137.69 17.64,0.99 35.61,-4.2 54.54,-9.7 31.85,-9.27 67.95,-19.78 106.48,1.54 8.25,4.57 11.24,14.95 6.67,23.2" /></g></g></svg>